<?xml version="1.0" encoding="UTF-8" standalone="no"?>
<!-- Created with Inkscape (http://www.inkscape.org/) -->

<svg
   xmlns:dc="http://purl.org/dc/elements/1.1/"
   xmlns:cc="http://creativecommons.org/ns#"
   xmlns:rdf="http://www.w3.org/1999/02/22-rdf-syntax-ns#"
   xmlns:svg="http://www.w3.org/2000/svg"
   xmlns="http://www.w3.org/2000/svg"
   xmlns:sodipodi="http://sodipodi.sourceforge.net/DTD/sodipodi-0.dtd"
   xmlns:inkscape="http://www.inkscape.org/namespaces/inkscape"
   id="svg2"
   version="1.1"
   inkscape:version="0.48.2 r9819"
   width="1052.3625"
   height="744.1"
   xml:space="preserve"
   sodipodi:docname="infinito_verde.ai"><metadata
     id="metadata8"><rdf:RDF><cc:Work
         rdf:about=""><dc:format>image/svg+xml</dc:format><dc:type
           rdf:resource="http://purl.org/dc/dcmitype/StillImage" /><dc:title></dc:title></cc:Work></rdf:RDF></metadata><defs
     id="defs6"><clipPath
       clipPathUnits="userSpaceOnUse"
       id="clipPath16"><path
         d="m 0,595.28 841.89,0 L 841.89,0 0,0 0,595.28 z"
         id="path18" /></clipPath></defs><sodipodi:namedview
     pagecolor="#ffffff"
     bordercolor="#666666"
     borderopacity="1"
     objecttolerance="10"
     gridtolerance="10"
     guidetolerance="10"
     inkscape:pageopacity="0"
     inkscape:pageshadow="2"
     inkscape:window-width="1348"
     inkscape:window-height="676"
     id="namedview4"
     showgrid="false"
     inkscape:zoom="0.31716168"
     inkscape:cx="511.089"
     inkscape:cy="396.55292"
     inkscape:window-x="0"
     inkscape:window-y="0"
     inkscape:window-maximized="0"
     inkscape:current-layer="g14" /><g
     id="g10"
     inkscape:groupmode="layer"
     inkscape:label="infinito_ff"
     transform="matrix(1.25,0,0,-1.25,0,744.1)"><g
       id="g12"
       transform="translate(-25.22373,-5.0447456)"><g
         id="g14"
         clip-path="url(#clipPath16)"><g
           id="g20"
           transform="translate(77.8203,295.1855)"
           style="fill:#999999;fill-opacity:1"><path
             d="m 0,0 22.911,0 c -0.013,0.78 -0.07,1.555 -0.077,2.335 -0.038,4.721 0.515,10.114 1.422,15.837 8.629,19.453 37.091,70.174 100.705,70.656 68.784,0.507 148.082,-75.06 166.583,-93.694 20.824,17.955 39.326,35.734 53.71,50.333 6.617,6.706 -3.027,-2.195 4.879,5.482 -1.688,2.056 -25.374,30.531 -62.116,57.028 l 28.539,26.121 c -38.602,25.436 -89.12,50.517 -137.994,50.156 C 79.748,183.518 -0.997,119.219 -0.108,0.102 -0.108,0.07 -0.102,0.032 -0.102,0 L 0,0 z"
             style="fill:#999999;fill-opacity:1;fill-rule:nonzero;stroke:none"
             id="path22"
             inkscape:connector-curvature="0" /></g><path
           inkscape:connector-curvature="0"
           id="path26"
           style="fill:#999999;fill-opacity:1;fill-rule:nonzero;stroke:none"
           d="m 554.2334,156.208 c 10.196,-6.04 20.703,-11.609 31.471,-16.445 -10.748,4.798 -21.3,10.43 -31.471,16.445 m 274.99,138.978 -20.898,0 c -0.476,-5.064 -1.53,-11.383 -3.141,-18.579 -6.789,-16.521 -34.96,-73.408 -102.127,-73.904 -37.086,-0.279 -77.235,21.63 -109.314,44.789 l -14.112,-12.474 -16.503,-14.734 c -29.794,19.206 -52.001,38.172 -61.494,46.687 -4.58,-4.284 -8.761,-8.261 -12.576,-11.884 3.929,3.742 7.913,7.544 12.494,11.82 -30.17,-26.971 -32.193,-30.792 -32.193,-30.792 -2.734,-2.518 -5.552,-5.323 -8.324,-7.911 -6.245,-5.818 0.031,0.177 -6.498,-5.883 l 0.007,-0.127 c 0,0 102.329,-112.15 193.694,-111.465 89.133,0.666 177.636,80.63 181.164,184.457 l -0.179,0 z" /><g
           id="g28"
           transform="translate(650.123,478.8301)"
           style="fill:#29bf68;fill-opacity:1"><path
             d="m 0,0 c 86.207,0.66 178.092,-68.568 178.898,-176.024 0.019,-2.703 -0.107,-5.292 -0.209,-7.931 l -21.089,0 c 0.183,2.062 0.418,4.098 0.406,5.691 -0.248,33.812 1.751,106.93 -84.786,106.276 -51.367,-0.368 -131.116,-60.466 -187.611,-109.328 9.119,-9.93 29.485,-30.797 57.403,-50.498 l -32.145,-31.299 c -29.795,19.2 -51.989,38.145 -61.456,46.653 -30.232,-26.997 -30.321,-26.502 -30.321,-26.502 -2.734,-2.539 -5.539,-5.336 -8.323,-7.925 -6.239,-5.811 0.036,0.171 -6.492,-5.887 -54.356,-51.051 -117.588,-111.644 -211.544,-112.341 -71.879,-0.534 -163.886,66.321 -164.881,185.16 l 23.107,0 c 1.035,-49.801 22.093,-96.671 95.946,-96.144 75.047,0.584 167.897,83.663 218.826,134.136 1.143,1.136 6.016,7.018 6.143,7.018 -1.682,2.068 -25.354,30.525 -62.065,57.028 l 34.433,32.021 c 37.347,-24.604 63.543,-49.61 66.133,-52.109 C -138.139,-54.197 -67.775,-0.501 0,0"
             style="fill:#000000;fill-opacity:1;fill-rule:nonzero;stroke:none"
             id="path30"
             inkscape:connector-curvature="0" /></g></g></g></g></svg>